<svg width="58" height="36" viewBox="0 0 58 36" fill="none" xmlns="http://www.w3.org/2000/svg">
<path d="M37.3444 2.35919H51.5209V5.79849H37.3444V2.35919ZM23.1396 15.9672C26.2733 14.4678 27.9148 12.1868 27.9148 8.66221C27.9148 1.69123 22.7274 0 16.7371 0H0.251144V34.9899H17.1989C23.5517 34.9899 29.5136 31.9343 29.5136 24.8283C29.5136 20.4368 27.4387 17.1894 23.1396 15.9672V15.9672ZM7.93983 5.96904H15.1524C17.9309 5.96904 20.4251 6.74359 20.4251 9.96971C20.4251 12.94 18.4851 14.1338 15.7351 14.1338H7.93983V5.96904ZM16.1473 29.0493H7.93273V19.4136H16.3107C19.6931 19.4136 21.8321 20.8277 21.8321 24.4091C21.8321 27.9337 19.281 29.0493 16.1473 29.0493V29.0493ZM57.0636 22.6894C57.0636 15.1926 52.6792 8.94645 44.7489 8.94645C37.0389 8.94645 31.7947 14.752 31.7947 22.3626C31.7947 30.2502 36.7617 35.665 44.7489 35.665C50.7961 35.665 54.7115 32.9434 56.5946 27.1378H50.4621C49.7941 29.3051 47.0797 30.4421 44.9692 30.4421C40.8903 30.4421 38.7585 28.0545 38.7585 23.9969H57.0138C57.0351 23.5777 57.0636 23.1371 57.0636 22.6894V22.6894ZM38.7585 19.6054C38.9788 16.2727 41.203 14.1907 44.5286 14.1907C48.0247 14.1907 49.7728 16.2443 50.0784 19.6054H38.7585Z" fill="#B7850B"/>
</svg>
