<svg width="70" height="70" viewBox="0 0 70 70" fill="none" xmlns="http://www.w3.org/2000/svg">
<path d="M48.0882 19.5665C48.0882 20.423 47.9186 21.2711 47.589 22.0624C47.2595 22.8537 46.7765 23.5727 46.1676 24.1784C45.5586 24.784 44.8358 25.2644 44.0402 25.5922C43.2446 25.92 42.3919 26.0887 41.5307 26.0887C40.6696 26.0887 39.8169 25.92 39.0213 25.5922C38.2257 25.2644 37.5028 24.784 36.8939 24.1784C36.285 23.5727 35.8019 22.8537 35.4724 22.0624C35.1429 21.2711 34.9732 20.423 34.9732 19.5665C34.9732 17.8367 35.6641 16.1778 36.8939 14.9546C38.1236 13.7315 39.7916 13.0443 41.5307 13.0443C43.2699 13.0443 44.9378 13.7315 46.1676 14.9546C47.3973 16.1778 48.0882 17.8367 48.0882 19.5665V19.5665ZM43.7165 19.5665C43.7165 18.9899 43.4863 18.4369 43.0763 18.0292C42.6664 17.6215 42.1104 17.3925 41.5307 17.3925C40.951 17.3925 40.395 17.6215 39.9851 18.0292C39.5752 18.4369 39.3449 18.9899 39.3449 19.5665C39.3449 20.1431 39.5752 20.6961 39.9851 21.1038C40.395 21.5115 40.951 21.7406 41.5307 21.7406C42.1104 21.7406 42.6664 21.5115 43.0763 21.1038C43.4863 20.6961 43.7165 20.1431 43.7165 19.5665ZM0 13.0443C0 9.58477 1.38175 6.26689 3.84128 3.8206C6.30082 1.37431 9.63666 0 13.115 0H48.0882C51.5665 0 54.9024 1.37431 57.3619 3.8206C59.8214 6.26689 61.2032 9.58477 61.2032 13.0443V26.1017C59.7124 26.1713 58.2304 26.5018 56.8315 27.0975V13.0443C56.8315 10.738 55.9103 8.52604 54.2707 6.89518C52.631 5.26432 50.4071 4.34811 48.0882 4.34811H13.115C10.7961 4.34811 8.5722 5.26432 6.93251 6.89518C5.29282 8.52604 4.37165 10.738 4.37165 13.0443V51.4208C4.37237 51.5918 4.42372 51.7587 4.51929 51.9008C4.61487 52.0429 4.75042 52.1538 4.90902 52.2197C5.06762 52.2855 5.24222 52.3035 5.41101 52.2712C5.5798 52.2389 5.73528 52.1579 5.85802 52.0382L9.38594 48.5771L9.3772 48.5641L13.9587 44.0855L14.8593 43.2072L26.007 32.3152C27.2331 31.1175 28.883 30.4465 30.6016 30.4465C32.3201 30.4465 33.97 31.1175 35.1962 32.3152L42.8247 39.7679L39.734 42.8463L32.1317 35.4154C31.7231 35.017 31.1737 34.7939 30.6016 34.7939C30.0294 34.7939 29.4801 35.017 29.0715 35.4154L17.0232 47.1857L8.93129 55.1341C5.61758 58.3865 0 56.0472 0 51.4208V13.0443V13.0443ZM1.74866 61.0258C3.3618 61.8258 5.37714 62.4824 7.06897 62.1128C8.16625 61.8693 9.59141 61.2736 11.1914 60.604C15.0604 58.9822 19.9479 56.9386 23.7031 58.443C26.4879 59.5561 26.2562 62.7085 25.4736 64.226C25.3206 64.513 25.4387 64.9217 25.7578 64.9956C27.3566 65.3188 28.989 65.4473 30.6191 65.3782C30.6367 65.1731 30.6703 64.9695 30.7196 64.7695L32.359 58.256C32.7787 56.5777 33.653 55.0384 34.8858 53.821L56.0009 32.8196C56.758 32.0551 57.6598 31.4472 58.6542 31.031C59.6486 30.6148 60.716 30.3985 61.7949 30.3945C62.8738 30.3906 63.9428 30.5991 64.9402 31.008C65.9377 31.4169 66.844 32.0181 67.6067 32.777C68.3694 33.536 68.9736 34.4376 69.3843 35.4298C69.7951 36.4221 70.0043 37.4854 69.9999 38.5585C69.9956 39.6315 69.7777 40.6931 69.3588 41.682C68.94 42.6709 68.3285 43.5676 67.5596 44.3203L46.4445 65.3174C45.2144 66.5414 43.6732 67.41 41.9854 67.8306L36.6432 69.1568C31.7426 70.5829 24.4288 70.122 22.1599 68.3611C20.197 66.8392 20.1184 64.5043 20.7785 62.952C20.9271 62.6042 20.6648 62.1563 20.2932 62.2128C18.1293 62.5172 16.3587 63.2999 14.6101 64.0695C12.0527 65.2 9.55644 66.3 5.97168 65.8565C2.86343 65.4739 1.13226 63.8608 0.179237 62.2693C-0.354105 61.3823 0.821871 60.5649 1.75303 61.0258H1.74866Z" fill="#805018"/>
<circle cx="35" cy="35" r="35" fill="#805018" fill-opacity="0.1"/>
</svg>
