<svg width="36" height="36" viewBox="0 0 36 36" fill="none" xmlns="http://www.w3.org/2000/svg">
<path d="M17.8402 0C8.10182 0 0.207748 7.89407 0.207748 17.6325C0.207748 27.3709 8.10182 35.265 17.8402 35.265C27.5787 35.265 35.4728 27.3709 35.4728 17.6325C35.4728 7.89407 27.5787 0 17.8402 0ZM17.8402 2.55495C21.6815 2.55495 25.1877 3.992 27.8502 6.35652C25.8939 8.93703 22.9219 10.6553 19.9438 11.8182C18.2579 8.74779 16.3685 5.79362 14.2882 2.97548C15.4517 2.69504 16.6443 2.55387 17.8411 2.55495H17.8402ZM11.4255 3.98318C13.3916 6.92428 15.2959 9.65115 17.0353 12.7377C12.636 13.8777 7.66453 14.5618 3.07215 14.5733C4.04017 9.87596 7.19551 5.97565 11.4255 3.98406V3.98318ZM29.5227 8.10037C31.7014 10.7628 32.8999 14.0926 32.9178 17.5329C29.4301 16.8452 25.9618 16.6654 22.43 17.0215C22.0333 16.0315 21.5519 15.0908 21.0908 14.0769C24.1351 12.8488 27.39 10.747 29.5227 8.09949V8.10037ZM18.2599 15.0705C18.6372 15.8728 19.0745 16.7244 19.4854 17.5946C14.5747 19.7599 9.35108 22.6534 6.64008 27.7262C4.03753 24.8462 2.65056 21.0707 2.76975 17.1908C8.02864 17.1661 13.1906 16.5084 18.2599 15.0705V15.0705ZM26.228 19.1815C28.4222 19.182 30.6073 19.4635 32.73 20.0191C32.4027 22.0611 31.6588 24.014 30.5445 25.7562C29.4301 27.4985 27.9693 28.9928 26.2527 30.1463C25.4434 26.4655 24.672 22.9434 23.3081 19.3922C24.2747 19.2514 25.2503 19.1807 26.2271 19.1806L26.228 19.1815ZM32.8085 19.4548C32.7979 19.5412 32.7882 19.6259 32.7759 19.7105C32.7882 19.625 32.7988 19.5403 32.8085 19.4548ZM20.5186 20.0808C21.9081 23.6716 22.9986 27.6478 23.7304 31.5172C21.8677 32.3076 19.8646 32.7136 17.8411 32.7109C14.4891 32.7157 11.2318 31.5984 8.58848 29.5371C11.3189 25.1078 15.548 21.7559 20.5177 20.0817L20.5186 20.0808Z" fill="#B7850B"/>
</svg>
