<svg width="70" height="70" viewBox="0 0 70 70" fill="none" xmlns="http://www.w3.org/2000/svg">
<path d="M30 49.8643C28.2667 49.672 26.5618 49.2776 24.92 48.6893C24.97 47.5093 25 46.2793 25 44.9993V44.5993V43.3143C26.55 44.0543 28.235 44.5693 30 44.8243V32.4993C30 30.5102 30.7902 28.6025 32.1967 27.196C33.6032 25.7895 35.5109 24.9993 37.5 24.9993H49.825C49.4263 22.2287 48.3688 19.5942 46.7412 17.3169C45.1137 15.0396 42.9636 13.1859 40.4715 11.9114C37.9794 10.6369 35.2179 9.97885 32.4188 9.9924C29.6197 10.0059 26.8647 10.6907 24.385 11.9893C23.9895 10.3539 23.3382 8.79135 22.455 7.35928C25.6964 5.7414 29.2804 4.93012 32.9026 4.99439C36.5247 5.05865 40.0777 5.99658 43.2596 7.72842C46.4415 9.46026 49.1582 11.9348 51.1787 14.9417C53.1993 17.9486 54.4639 21.3989 54.865 24.9993H62.5C64.4891 24.9993 66.3968 25.7895 67.8033 27.196C69.2098 28.6025 70 30.5102 70 32.4993V57.4993C70 59.4884 69.2098 61.3961 67.8033 62.8026C66.3968 64.2091 64.4891 64.9993 62.5 64.9993H37.5C35.5109 64.9993 33.6032 64.2091 32.1967 62.8026C30.7902 61.3961 30 59.4884 30 57.4993V49.8643ZM54.865 29.9993C54.2969 35.0723 52.0214 39.8015 48.4118 43.4111C44.8023 47.0207 40.073 49.2962 35 49.8643V57.4993C35 58.1623 35.2634 58.7982 35.7322 59.267C36.2011 59.7359 36.837 59.9993 37.5 59.9993H62.5C63.1631 59.9993 63.7989 59.7359 64.2678 59.267C64.7366 58.7982 65 58.1623 65 57.4993V32.4993C65 31.8362 64.7366 31.2003 64.2678 30.7315C63.7989 30.2627 63.1631 29.9993 62.5 29.9993H54.865ZM49.825 29.9993H37.5C36.837 29.9993 36.2011 30.2627 35.7322 30.7315C35.2634 31.2003 35 31.8362 35 32.4993V44.8243C38.7399 44.2837 42.2046 42.5478 44.8766 39.8758C47.5485 37.2038 49.2844 33.7392 49.825 29.9993V29.9993Z" fill="#805018"/>
<path d="M18.975 32.8043C18.45 30.8743 17.6 28.9393 16.14 27.4543C18.5 25.2193 20 21.6593 20 17.4993C20 14.0143 19.295 11.6193 18.02 9.70428C17.4543 8.88064 16.8004 8.12116 16.07 7.43928C15.7901 7.16902 15.5067 6.90233 15.22 6.63928C14.915 6.35428 14.635 6.09428 14.27 5.72928C13.52 4.97928 13.435 4.37928 13.435 4.06428C13.4358 3.88919 13.4645 3.71535 13.52 3.54928C13.7486 3.05491 13.8095 2.49941 13.6934 1.96725C13.5774 1.4351 13.2907 0.955404 12.877 0.601127C12.4633 0.246849 11.9452 0.0373699 11.4015 0.00454565C10.8578 -0.0282786 10.3183 0.117348 9.865 0.41928L9.855 0.42428L9.84 0.43428L9.795 0.46428L9.645 0.56428C8.895 1.09923 8.17242 1.67163 7.48 2.27928C6.23 3.38428 4.6 5.01928 3.445 6.96928C2.43675 8.58592 1.62755 10.3185 1.035 12.1293C0.435 13.9243 0 15.8693 0 17.4993C0 21.6593 1.5 25.2143 3.86 27.4593C2.4 28.9393 1.55 30.8743 1.025 32.8093C2.23517e-07 36.5693 0 41.2193 0 44.8143V44.9993C0 55.2893 1.925 61.3993 4.105 65.0343C5.2 66.8543 6.34 68.0293 7.295 68.7693C7.80386 69.1662 8.35767 69.5018 8.945 69.7693C9.28466 69.8933 9.63955 69.9706 10 69.9993C10.42 69.9993 11.055 69.7693 11.055 69.7693C11.6423 69.5018 12.1961 69.1662 12.705 68.7693C13.655 68.0293 14.805 66.8543 15.895 65.0343C18.075 61.4043 20 55.2893 20 44.9993V44.8193C20 41.2193 20 36.5743 18.975 32.8043ZM7.435 30.9543C8 30.3843 8.755 29.9993 10 29.9993C11.25 29.9993 12 30.3893 12.565 30.9493C13.195 31.5843 13.74 32.6143 14.15 34.1193C14.98 37.1743 15 41.1843 15 44.9993C15 54.7093 13.175 59.8493 11.605 62.4643C11.005 63.4643 10.44 64.1093 10 64.5143C9.37133 63.9098 8.83101 63.2196 8.395 62.4643C6.825 59.8443 5 54.7093 5 44.9993C5 41.1843 5.02 37.1743 5.85 34.1193C6.26 32.6193 6.805 31.5843 7.435 30.9493V30.9543ZM10 24.9993C8.075 24.9993 5 22.8593 5 17.4993C5 16.6343 5.26 15.2643 5.78 13.7143C6.25386 12.251 6.90717 10.852 7.725 9.54928C8.16 8.81428 8.725 8.09928 9.335 7.44428C9.68 8.05428 10.135 8.66928 10.735 9.26928C11.1 9.63428 11.575 10.0743 11.98 10.4543L12.6 11.0343C13.125 11.5443 13.53 11.9893 13.855 12.4843C14.455 13.3793 15 14.7343 15 17.4993C15 22.8593 11.925 24.9993 10 24.9993Z" fill="#805018"/>
<circle cx="35" cy="35" r="35" fill="#805018" fill-opacity="0.1"/>
</svg>
