<svg width="36" height="36" viewBox="0 0 36 36" fill="none" xmlns="http://www.w3.org/2000/svg">
<path fill-rule="evenodd" clip-rule="evenodd" d="M10.3631 0.105795C12.2434 0.0192354 12.8429 0 17.6325 0C22.4221 0 23.0216 0.0208384 24.9003 0.105795C26.779 0.190752 28.0613 0.490504 29.1834 0.924905C30.3584 1.36892 31.4243 2.063 32.3059 2.96066C33.2036 3.84068 33.8961 4.90504 34.3385 6.08161C34.7745 7.20368 35.0726 8.48604 35.1592 10.3615C35.2458 12.245 35.265 12.8445 35.265 17.6325C35.265 22.4221 35.2442 23.0216 35.1592 24.9019C35.0743 26.7774 34.7745 28.0597 34.3385 29.1818C33.8961 30.3585 33.2025 31.4246 32.3059 32.3059C31.4243 33.2036 30.3584 33.8961 29.1834 34.3385C28.0613 34.7745 26.779 35.0726 24.9035 35.1592C23.0216 35.2458 22.4221 35.265 17.6325 35.265C12.8429 35.265 12.2434 35.2442 10.3631 35.1592C8.48765 35.0743 7.20528 34.7745 6.08321 34.3385C4.90652 33.896 3.84039 33.2024 2.95905 32.3059C2.06201 31.4254 1.36782 30.3598 0.924905 29.1834C0.490504 28.0613 0.192355 26.779 0.105795 24.9035C0.0192354 23.02 0 22.4205 0 17.6325C0 12.8429 0.0208384 12.2434 0.105795 10.3647C0.190752 8.48604 0.490504 7.20368 0.924905 6.08161C1.36848 4.90517 2.06319 3.83958 2.96066 2.95905C3.84074 2.0622 4.9058 1.36803 6.08161 0.924905C7.20368 0.490504 8.48604 0.192355 10.3615 0.105795H10.3631ZM24.7576 3.27965C22.8982 3.19469 22.3404 3.17706 17.6325 3.17706C12.9246 3.17706 12.3668 3.19469 10.5074 3.27965C8.7874 3.35819 7.85448 3.64512 7.23253 3.88717C6.41022 4.20776 5.82193 4.58766 5.20479 5.20479C4.61979 5.77393 4.16957 6.46677 3.88717 7.23253C3.64512 7.85448 3.35819 8.7874 3.27965 10.5074C3.19469 12.3668 3.17706 12.9246 3.17706 17.6325C3.17706 22.3404 3.19469 22.8982 3.27965 24.7576C3.35819 26.4776 3.64512 27.4105 3.88717 28.0325C4.16929 28.7971 4.61972 29.4912 5.20479 30.0602C5.77384 30.6453 6.46792 31.0957 7.23253 31.3778C7.85448 31.6199 8.7874 31.9068 10.5074 31.9854C12.3668 32.0703 12.923 32.0879 17.6325 32.0879C22.342 32.0879 22.8982 32.0703 24.7576 31.9854C26.4776 31.9068 27.4105 31.6199 28.0325 31.3778C28.8548 31.0572 29.4431 30.6773 30.0602 30.0602C30.6453 29.4912 31.0957 28.7971 31.3778 28.0325C31.6199 27.4105 31.9068 26.4776 31.9854 24.7576C32.0703 22.8982 32.0879 22.3404 32.0879 17.6325C32.0879 12.9246 32.0703 12.3668 31.9854 10.5074C31.9068 8.7874 31.6199 7.85448 31.3778 7.23253C31.0572 6.41022 30.6773 5.82193 30.0602 5.20479C29.491 4.61983 28.7982 4.16962 28.0325 3.88717C27.4105 3.64512 26.4776 3.35819 24.7576 3.27965V3.27965ZM15.3804 23.0681C16.6381 23.5917 18.0387 23.6624 19.3427 23.268C20.6468 22.8737 21.7736 22.0389 22.5305 20.9061C23.2874 19.7734 23.6276 18.4129 23.493 17.0572C23.3583 15.7015 22.7572 14.4346 21.7922 13.4728C21.177 12.8581 20.4332 12.3873 19.6143 12.0945C18.7954 11.8017 17.9217 11.6941 17.0562 11.7795C16.1907 11.8649 15.3549 12.1411 14.609 12.5882C13.8631 13.0354 13.2256 13.6423 12.7424 14.3654C12.2592 15.0885 11.9423 15.9098 11.8146 16.77C11.6869 17.6303 11.7515 18.5082 12.0038 19.3405C12.2561 20.1728 12.6898 20.9388 13.2736 21.5833C13.8575 22.2279 14.577 22.735 15.3804 23.0681ZM11.2239 11.2239C12.0655 10.3823 13.0646 9.71471 14.1642 9.25925C15.2638 8.80378 16.4423 8.56935 17.6325 8.56935C18.8227 8.56935 20.0012 8.80378 21.1008 9.25925C22.2004 9.71471 23.1995 10.3823 24.0411 11.2239C24.8827 12.0655 25.5503 13.0646 26.0058 14.1642C26.4612 15.2638 26.6957 16.4423 26.6957 17.6325C26.6957 18.8227 26.4612 20.0012 26.0058 21.1008C25.5503 22.2004 24.8827 23.1995 24.0411 24.0411C22.3414 25.7408 20.0362 26.6957 17.6325 26.6957C15.2288 26.6957 12.9236 25.7408 11.2239 24.0411C9.52422 22.3414 8.56936 20.0362 8.56936 17.6325C8.56936 15.2288 9.52422 12.9236 11.2239 11.2239V11.2239ZM28.7057 9.91908C28.9143 9.72235 29.0812 9.48577 29.1967 9.22336C29.3122 8.96094 29.3738 8.67803 29.378 8.39136C29.3822 8.10469 29.3288 7.82009 29.221 7.55442C29.1133 7.28875 28.9533 7.04741 28.7505 6.84468C28.5478 6.64195 28.3065 6.48196 28.0408 6.37418C27.7751 6.2664 27.4905 6.21301 27.2039 6.21719C26.9172 6.22137 26.6343 6.28303 26.3719 6.39851C26.1094 6.51399 25.8729 6.68095 25.6761 6.8895C25.2935 7.29509 25.084 7.83383 25.0922 8.39136C25.1003 8.94888 25.3254 9.48128 25.7197 9.87555C26.1139 10.2698 26.6463 10.4949 27.2039 10.503C27.7614 10.5112 28.3001 10.3017 28.7057 9.91908V9.91908Z" fill="#B7850B"/>
</svg>
