<svg width="70" height="70" viewBox="0 0 70 70" fill="none" xmlns="http://www.w3.org/2000/svg">
<circle cx="35" cy="35" r="35" fill="#805018" fill-opacity="0.1"/>
<path d="M14.7743 34.6472V54.8879H35.015L30.7938 50.6667H18.9955V38.8684L14.7743 34.6472Z" fill="#805018"/>
<path d="M69.3756 66.0531L63.3182 59.9113V65.4411H4.22125V56.682H8.44246V53.3051H4.22125V39.2695H8.44246V35.8926H4.22125V22.3847H8.44246V19.0077H4.22125V7.20944L37.8643 40.6625V34.7106L3.60917 0.624351C3.31396 0.326693 2.93679 0.123694 2.52576 0.0412335C2.11472 -0.0412272 1.68844 0.000586803 1.30126 0.161345C0.914086 0.322103 0.583552 0.594521 0.351806 0.943868C0.120059 1.29322 -0.00240225 1.70366 3.5705e-05 2.12288V67.5517C3.5705e-05 68.1114 0.222402 68.6483 0.618218 69.0441C1.01403 69.4399 1.55087 69.6623 2.11064 69.6623H67.8771C68.2963 69.6647 68.7068 69.5423 69.0561 69.3105C69.4055 69.0788 69.6779 68.7482 69.8387 68.361C69.9994 67.9739 70.0412 67.5476 69.9588 67.1365C69.8763 66.7255 69.6733 66.3483 69.3756 66.0531V66.0531Z" fill="#805018"/>
<path d="M46.4334 61.2198H54.8758C55.9954 61.2198 57.0691 60.7751 57.8607 59.9835C58.6523 59.1918 59.0971 58.1181 59.0971 56.9986V16.2639L54.2427 7.33605C53.8672 6.6856 53.3251 6.1471 52.6721 5.77609C52.0191 5.40508 51.279 5.21499 50.528 5.22545C49.76 5.23154 49.0083 5.44702 48.3537 5.84869C47.6992 6.25036 47.1666 6.82298 46.8133 7.5049L42.2122 16.3061V56.9986C42.2122 58.1181 42.657 59.1918 43.4486 59.9835C44.2402 60.7751 45.3139 61.2198 46.4334 61.2198ZM46.4334 17.3192L50.528 9.36223L54.8758 17.3403V48.5562H46.4334V17.3192ZM46.4334 51.9965H54.8758V57.1464H46.4334V51.9965Z" fill="#805018"/>
</svg>
