<svg width="45" height="36" viewBox="0 0 45 36" fill="none" xmlns="http://www.w3.org/2000/svg">
<path d="M44.4021 4.27026C42.7736 4.99188 41.0242 5.47946 39.185 5.69984C41.0827 4.56435 42.5024 2.77722 43.1793 0.671921C41.3964 1.73092 39.4451 2.47635 37.4102 2.87578C36.0418 1.41473 34.2294 0.44632 32.2542 0.120905C30.2791 -0.20451 28.2517 0.131276 26.487 1.07613C24.7222 2.02098 23.3187 3.52204 22.4945 5.34626C21.6702 7.17047 21.4713 9.21578 21.9286 11.1646C18.316 10.9832 14.7819 10.0443 11.5557 8.40865C8.32946 6.77302 5.4832 4.47731 3.20164 1.67048C2.42151 3.0162 1.97294 4.57646 1.97294 6.23813C1.97207 7.73401 2.34044 9.20699 3.04538 10.5264C3.75031 11.8457 4.77001 12.9707 6.014 13.8015C4.5713 13.7556 3.16044 13.3657 1.89883 12.6644V12.7814C1.89868 14.8795 2.62441 16.913 3.95287 18.5368C5.28133 20.1607 7.1307 21.2749 9.18717 21.6905C7.84883 22.0527 6.44568 22.1061 5.0837 21.8465C5.66391 23.6518 6.79412 25.2304 8.31609 26.3614C9.83806 27.4924 11.6756 28.1191 13.5715 28.1539C10.3531 30.6803 6.37849 32.0508 2.28694 32.0447C1.56217 32.0449 0.838003 32.0026 0.118187 31.918C4.27134 34.5883 9.10592 36.0055 14.0435 36C30.7577 36 39.8949 22.1566 39.8949 10.1505C39.8949 9.7604 39.8852 9.36644 39.8676 8.97637C41.6449 7.69107 43.1791 6.09945 44.3982 4.27611L44.4021 4.27026V4.27026Z" fill="#B7850B"/>
</svg>
